<mxfile host="app.diagrams.net" agent="Mozilla/5.0 (Windows NT 10.0; Win64; x64) AppleWebKit/537.36 (KHTML, like Gecko) Chrome/128.0.0.0 Safari/537.36 Edg/128.0.0.0" version="24.7.16">
  <diagram id="C5RBs43oDa-KdzZeNtuy" name="Page-1">
    <mxGraphModel grid="1" page="1" gridSize="10" guides="1" tooltips="1" connect="1" arrows="1" fold="1" pageScale="1" pageWidth="827" pageHeight="1169" math="0" shadow="0">
      <root>
        <mxCell id="WIyWlLk6GJQsqaUBKTNV-0" />
        <mxCell id="WIyWlLk6GJQsqaUBKTNV-1" parent="WIyWlLk6GJQsqaUBKTNV-0" />
        <mxCell id="7KKqcQ-AcLceqtSB1Sf0-24" value="User" style="swimlane;fontStyle=1;align=center;verticalAlign=top;childLayout=stackLayout;horizontal=1;startSize=26;horizontalStack=0;resizeParent=1;resizeParentMax=0;resizeLast=0;collapsible=1;marginBottom=0;whiteSpace=wrap;html=1;" vertex="1" parent="WIyWlLk6GJQsqaUBKTNV-1">
          <mxGeometry x="350" y="130" width="150" height="160" as="geometry" />
        </mxCell>
        <mxCell id="7KKqcQ-AcLceqtSB1Sf0-25" value="+ username: String&lt;div&gt;+ password: String&lt;/div&gt;&lt;div&gt;+ email: String&lt;/div&gt;&lt;div&gt;+ role: UserRole&lt;/div&gt;" style="text;strokeColor=none;fillColor=none;align=left;verticalAlign=top;spacingLeft=4;spacingRight=4;overflow=hidden;rotatable=0;points=[[0,0.5],[1,0.5]];portConstraint=eastwest;whiteSpace=wrap;html=1;" vertex="1" parent="7KKqcQ-AcLceqtSB1Sf0-24">
          <mxGeometry y="26" width="150" height="64" as="geometry" />
        </mxCell>
        <mxCell id="7KKqcQ-AcLceqtSB1Sf0-26" value="" style="line;strokeWidth=1;fillColor=none;align=left;verticalAlign=middle;spacingTop=-1;spacingLeft=3;spacingRight=3;rotatable=0;labelPosition=right;points=[];portConstraint=eastwest;strokeColor=inherit;" vertex="1" parent="7KKqcQ-AcLceqtSB1Sf0-24">
          <mxGeometry y="90" width="150" height="8" as="geometry" />
        </mxCell>
        <mxCell id="7KKqcQ-AcLceqtSB1Sf0-27" value="&lt;div&gt;+ login()&lt;/div&gt;&lt;div&gt;+ logout()&lt;/div&gt;&lt;div&gt;+ passwordreset()&lt;/div&gt;" style="text;strokeColor=none;fillColor=none;align=left;verticalAlign=top;spacingLeft=4;spacingRight=4;overflow=hidden;rotatable=0;points=[[0,0.5],[1,0.5]];portConstraint=eastwest;whiteSpace=wrap;html=1;" vertex="1" parent="7KKqcQ-AcLceqtSB1Sf0-24">
          <mxGeometry y="98" width="150" height="62" as="geometry" />
        </mxCell>
        <mxCell id="JApCHdV5CyoGkeaYSmi2-0" value="Patient" style="swimlane;fontStyle=1;align=center;verticalAlign=top;childLayout=stackLayout;horizontal=1;startSize=26;horizontalStack=0;resizeParent=1;resizeParentMax=0;resizeLast=0;collapsible=1;marginBottom=0;whiteSpace=wrap;html=1;" vertex="1" parent="WIyWlLk6GJQsqaUBKTNV-1">
          <mxGeometry x="-100" y="417" width="150" height="124" as="geometry" />
        </mxCell>
        <mxCell id="JApCHdV5CyoGkeaYSmi2-2" value="" style="line;strokeWidth=1;fillColor=none;align=left;verticalAlign=middle;spacingTop=-1;spacingLeft=3;spacingRight=3;rotatable=0;labelPosition=right;points=[];portConstraint=eastwest;strokeColor=inherit;" vertex="1" parent="JApCHdV5CyoGkeaYSmi2-0">
          <mxGeometry y="26" width="150" height="8" as="geometry" />
        </mxCell>
        <mxCell id="JApCHdV5CyoGkeaYSmi2-3" value="+ register()&lt;div&gt;+ undergoVirtualTriage()&lt;/div&gt;&lt;div&gt;+ chooseOptions()&lt;/div&gt;&lt;div&gt;+ receiveNotifications()&lt;/div&gt;&lt;div&gt;+ viewTriageResults()&lt;/div&gt;" style="text;strokeColor=none;fillColor=none;align=left;verticalAlign=top;spacingLeft=4;spacingRight=4;overflow=hidden;rotatable=0;points=[[0,0.5],[1,0.5]];portConstraint=eastwest;whiteSpace=wrap;html=1;" vertex="1" parent="JApCHdV5CyoGkeaYSmi2-0">
          <mxGeometry y="34" width="150" height="90" as="geometry" />
        </mxCell>
        <mxCell id="JApCHdV5CyoGkeaYSmi2-5" value="Admin" style="swimlane;fontStyle=1;align=center;verticalAlign=top;childLayout=stackLayout;horizontal=1;startSize=26;horizontalStack=0;resizeParent=1;resizeParentMax=0;resizeLast=0;collapsible=1;marginBottom=0;whiteSpace=wrap;html=1;" vertex="1" parent="WIyWlLk6GJQsqaUBKTNV-1">
          <mxGeometry x="910" y="417" width="180" height="134" as="geometry" />
        </mxCell>
        <mxCell id="JApCHdV5CyoGkeaYSmi2-7" value="" style="line;strokeWidth=1;fillColor=none;align=left;verticalAlign=middle;spacingTop=-1;spacingLeft=3;spacingRight=3;rotatable=0;labelPosition=right;points=[];portConstraint=eastwest;strokeColor=inherit;" vertex="1" parent="JApCHdV5CyoGkeaYSmi2-5">
          <mxGeometry y="26" width="180" height="8" as="geometry" />
        </mxCell>
        <mxCell id="JApCHdV5CyoGkeaYSmi2-8" value="+ viewUserAccount()&lt;div&gt;+ addUserAccount()&lt;/div&gt;&lt;div&gt;+ disableUserAccount()&lt;/div&gt;&lt;div&gt;+ deleteUserAccount()&lt;/div&gt;&lt;div&gt;+ viewAuditLogs()&lt;/div&gt;&lt;div&gt;+ updateSystemConfiguration()&lt;/div&gt;" style="text;strokeColor=none;fillColor=none;align=left;verticalAlign=top;spacingLeft=4;spacingRight=4;overflow=hidden;rotatable=0;points=[[0,0.5],[1,0.5]];portConstraint=eastwest;whiteSpace=wrap;html=1;" vertex="1" parent="JApCHdV5CyoGkeaYSmi2-5">
          <mxGeometry y="34" width="180" height="100" as="geometry" />
        </mxCell>
        <mxCell id="JApCHdV5CyoGkeaYSmi2-9" value="ED" style="swimlane;fontStyle=1;align=center;verticalAlign=top;childLayout=stackLayout;horizontal=1;startSize=26;horizontalStack=0;resizeParent=1;resizeParentMax=0;resizeLast=0;collapsible=1;marginBottom=0;whiteSpace=wrap;html=1;" vertex="1" parent="WIyWlLk6GJQsqaUBKTNV-1">
          <mxGeometry x="90" y="417" width="160" height="140" as="geometry" />
        </mxCell>
        <mxCell id="JApCHdV5CyoGkeaYSmi2-10" value="+ patient_queue&lt;div&gt;+ ed_status:&amp;nbsp;&lt;/div&gt;" style="text;strokeColor=none;fillColor=none;align=left;verticalAlign=top;spacingLeft=4;spacingRight=4;overflow=hidden;rotatable=0;points=[[0,0.5],[1,0.5]];portConstraint=eastwest;whiteSpace=wrap;html=1;" vertex="1" parent="JApCHdV5CyoGkeaYSmi2-9">
          <mxGeometry y="26" width="160" height="34" as="geometry" />
        </mxCell>
        <mxCell id="JApCHdV5CyoGkeaYSmi2-11" value="" style="line;strokeWidth=1;fillColor=none;align=left;verticalAlign=middle;spacingTop=-1;spacingLeft=3;spacingRight=3;rotatable=0;labelPosition=right;points=[];portConstraint=eastwest;strokeColor=inherit;" vertex="1" parent="JApCHdV5CyoGkeaYSmi2-9">
          <mxGeometry y="60" width="160" height="8" as="geometry" />
        </mxCell>
        <mxCell id="JApCHdV5CyoGkeaYSmi2-12" value="+ managePatientFlow()&lt;div&gt;+ updateStatus()&lt;/div&gt;&lt;div&gt;+ sendUpdateNotification()&lt;/div&gt;&lt;div&gt;+ generateReports()&lt;/div&gt;" style="text;strokeColor=none;fillColor=none;align=left;verticalAlign=top;spacingLeft=4;spacingRight=4;overflow=hidden;rotatable=0;points=[[0,0.5],[1,0.5]];portConstraint=eastwest;whiteSpace=wrap;html=1;" vertex="1" parent="JApCHdV5CyoGkeaYSmi2-9">
          <mxGeometry y="68" width="160" height="72" as="geometry" />
        </mxCell>
        <mxCell id="JApCHdV5CyoGkeaYSmi2-13" value="Clinic" style="swimlane;fontStyle=1;align=center;verticalAlign=top;childLayout=stackLayout;horizontal=1;startSize=26;horizontalStack=0;resizeParent=1;resizeParentMax=0;resizeLast=0;collapsible=1;marginBottom=0;whiteSpace=wrap;html=1;" vertex="1" parent="WIyWlLk6GJQsqaUBKTNV-1">
          <mxGeometry x="710" y="417" width="160" height="124" as="geometry" />
        </mxCell>
        <mxCell id="JApCHdV5CyoGkeaYSmi2-15" value="" style="line;strokeWidth=1;fillColor=none;align=left;verticalAlign=middle;spacingTop=-1;spacingLeft=3;spacingRight=3;rotatable=0;labelPosition=right;points=[];portConstraint=eastwest;strokeColor=inherit;" vertex="1" parent="JApCHdV5CyoGkeaYSmi2-13">
          <mxGeometry y="26" width="160" height="8" as="geometry" />
        </mxCell>
        <mxCell id="JApCHdV5CyoGkeaYSmi2-16" value="+ receiveReferrals()&lt;div&gt;+ accessPatientHistory()&lt;/div&gt;&lt;div&gt;+ provideCare()&lt;/div&gt;&lt;div&gt;+ UpdatePatientHistory()&lt;/div&gt;&lt;div&gt;+ CommunicateWithED()&lt;/div&gt;" style="text;strokeColor=none;fillColor=none;align=left;verticalAlign=top;spacingLeft=4;spacingRight=4;overflow=hidden;rotatable=0;points=[[0,0.5],[1,0.5]];portConstraint=eastwest;whiteSpace=wrap;html=1;" vertex="1" parent="JApCHdV5CyoGkeaYSmi2-13">
          <mxGeometry y="34" width="160" height="90" as="geometry" />
        </mxCell>
        <mxCell id="JApCHdV5CyoGkeaYSmi2-17" value="Nurse" style="swimlane;fontStyle=1;align=center;verticalAlign=top;childLayout=stackLayout;horizontal=1;startSize=26;horizontalStack=0;resizeParent=1;resizeParentMax=0;resizeLast=0;collapsible=1;marginBottom=0;whiteSpace=wrap;html=1;" vertex="1" parent="WIyWlLk6GJQsqaUBKTNV-1">
          <mxGeometry x="280" y="417" width="150" height="124" as="geometry" />
        </mxCell>
        <mxCell id="JApCHdV5CyoGkeaYSmi2-19" value="" style="line;strokeWidth=1;fillColor=none;align=left;verticalAlign=middle;spacingTop=-1;spacingLeft=3;spacingRight=3;rotatable=0;labelPosition=right;points=[];portConstraint=eastwest;strokeColor=inherit;" vertex="1" parent="JApCHdV5CyoGkeaYSmi2-17">
          <mxGeometry y="26" width="150" height="8" as="geometry" />
        </mxCell>
        <mxCell id="JApCHdV5CyoGkeaYSmi2-20" value="+ assistWithTriage()&lt;div&gt;+ followUpWithPatient()&lt;/div&gt;&lt;div&gt;+ createAppointment()&lt;/div&gt;&lt;div&gt;+ updatePatientDate()&lt;/div&gt;&lt;div&gt;+ checkWaitTime()&lt;/div&gt;" style="text;strokeColor=none;fillColor=none;align=left;verticalAlign=top;spacingLeft=4;spacingRight=4;overflow=hidden;rotatable=0;points=[[0,0.5],[1,0.5]];portConstraint=eastwest;whiteSpace=wrap;html=1;" vertex="1" parent="JApCHdV5CyoGkeaYSmi2-17">
          <mxGeometry y="34" width="150" height="90" as="geometry" />
        </mxCell>
        <mxCell id="JApCHdV5CyoGkeaYSmi2-21" value="Chemist" style="swimlane;fontStyle=1;align=center;verticalAlign=top;childLayout=stackLayout;horizontal=1;startSize=26;horizontalStack=0;resizeParent=1;resizeParentMax=0;resizeLast=0;collapsible=1;marginBottom=0;whiteSpace=wrap;html=1;" vertex="1" parent="WIyWlLk6GJQsqaUBKTNV-1">
          <mxGeometry x="460" y="417" width="220" height="124" as="geometry" />
        </mxCell>
        <mxCell id="JApCHdV5CyoGkeaYSmi2-23" value="" style="line;strokeWidth=1;fillColor=none;align=left;verticalAlign=middle;spacingTop=-1;spacingLeft=3;spacingRight=3;rotatable=0;labelPosition=right;points=[];portConstraint=eastwest;strokeColor=inherit;" vertex="1" parent="JApCHdV5CyoGkeaYSmi2-21">
          <mxGeometry y="26" width="220" height="8" as="geometry" />
        </mxCell>
        <mxCell id="JApCHdV5CyoGkeaYSmi2-24" value="+ receivePrescription()&lt;div&gt;+ dispenseMedication()&lt;/div&gt;&lt;div&gt;+ offerAdvice()&lt;/div&gt;&lt;div&gt;+ filterPrescription()&lt;/div&gt;&lt;div&gt;+ coordinateWithHealthcareProviders()&lt;/div&gt;" style="text;strokeColor=none;fillColor=none;align=left;verticalAlign=top;spacingLeft=4;spacingRight=4;overflow=hidden;rotatable=0;points=[[0,0.5],[1,0.5]];portConstraint=eastwest;whiteSpace=wrap;html=1;" vertex="1" parent="JApCHdV5CyoGkeaYSmi2-21">
          <mxGeometry y="34" width="220" height="90" as="geometry" />
        </mxCell>
        <mxCell id="HeUWFQ3dTlAahbH0ZeK0-4" value="AuditLog" style="swimlane;fontStyle=1;align=center;verticalAlign=top;childLayout=stackLayout;horizontal=1;startSize=26;horizontalStack=0;resizeParent=1;resizeParentMax=0;resizeLast=0;collapsible=1;marginBottom=0;whiteSpace=wrap;html=1;" vertex="1" parent="WIyWlLk6GJQsqaUBKTNV-1">
          <mxGeometry x="920" y="610" width="160" height="134" as="geometry" />
        </mxCell>
        <mxCell id="HeUWFQ3dTlAahbH0ZeK0-5" value="+ logID: String&lt;div&gt;+ user: User&lt;/div&gt;&lt;div&gt;+ action: String&lt;/div&gt;&lt;div&gt;+ timestamp: DateTime&lt;/div&gt;&lt;div&gt;&lt;br&gt;&lt;/div&gt;&lt;div&gt;&lt;br&gt;&lt;/div&gt;" style="text;strokeColor=none;fillColor=none;align=left;verticalAlign=top;spacingLeft=4;spacingRight=4;overflow=hidden;rotatable=0;points=[[0,0.5],[1,0.5]];portConstraint=eastwest;whiteSpace=wrap;html=1;" vertex="1" parent="HeUWFQ3dTlAahbH0ZeK0-4">
          <mxGeometry y="26" width="160" height="74" as="geometry" />
        </mxCell>
        <mxCell id="HeUWFQ3dTlAahbH0ZeK0-6" value="" style="line;strokeWidth=1;fillColor=none;align=left;verticalAlign=middle;spacingTop=-1;spacingLeft=3;spacingRight=3;rotatable=0;labelPosition=right;points=[];portConstraint=eastwest;strokeColor=inherit;" vertex="1" parent="HeUWFQ3dTlAahbH0ZeK0-4">
          <mxGeometry y="100" width="160" height="8" as="geometry" />
        </mxCell>
        <mxCell id="HeUWFQ3dTlAahbH0ZeK0-7" value="+ recordAction()" style="text;strokeColor=none;fillColor=none;align=left;verticalAlign=top;spacingLeft=4;spacingRight=4;overflow=hidden;rotatable=0;points=[[0,0.5],[1,0.5]];portConstraint=eastwest;whiteSpace=wrap;html=1;" vertex="1" parent="HeUWFQ3dTlAahbH0ZeK0-4">
          <mxGeometry y="108" width="160" height="26" as="geometry" />
        </mxCell>
        <mxCell id="OBrV_FEZi-91y5rjij_C-0" value="MedicalRecord" style="swimlane;fontStyle=1;align=center;verticalAlign=top;childLayout=stackLayout;horizontal=1;startSize=26;horizontalStack=0;resizeParent=1;resizeParentMax=0;resizeLast=0;collapsible=1;marginBottom=0;whiteSpace=wrap;html=1;" vertex="1" parent="WIyWlLk6GJQsqaUBKTNV-1">
          <mxGeometry x="-105" y="610" width="160" height="190" as="geometry" />
        </mxCell>
        <mxCell id="OBrV_FEZi-91y5rjij_C-1" value="+ recordID: String&lt;br&gt;+ diagnosis: String&lt;br&gt;+ treatment: String&lt;br&gt;+ medications: List&amp;lt;String&amp;gt;&lt;br&gt;+ doctorNotes: String&lt;br&gt;+ dateOfEntry: DateTime" style="text;strokeColor=none;fillColor=none;align=left;verticalAlign=top;spacingLeft=4;spacingRight=4;overflow=hidden;rotatable=0;points=[[0,0.5],[1,0.5]];portConstraint=eastwest;whiteSpace=wrap;html=1;" vertex="1" parent="OBrV_FEZi-91y5rjij_C-0">
          <mxGeometry y="26" width="160" height="104" as="geometry" />
        </mxCell>
        <mxCell id="OBrV_FEZi-91y5rjij_C-2" value="" style="line;strokeWidth=1;fillColor=none;align=left;verticalAlign=middle;spacingTop=-1;spacingLeft=3;spacingRight=3;rotatable=0;labelPosition=right;points=[];portConstraint=eastwest;strokeColor=inherit;" vertex="1" parent="OBrV_FEZi-91y5rjij_C-0">
          <mxGeometry y="130" width="160" height="8" as="geometry" />
        </mxCell>
        <mxCell id="OBrV_FEZi-91y5rjij_C-3" value="    + addEntry()&lt;br/&gt;    + updateRecord()&lt;br/&gt;    + viewRecord()" style="text;strokeColor=none;fillColor=none;align=left;verticalAlign=top;spacingLeft=4;spacingRight=4;overflow=hidden;rotatable=0;points=[[0,0.5],[1,0.5]];portConstraint=eastwest;whiteSpace=wrap;html=1;" vertex="1" parent="OBrV_FEZi-91y5rjij_C-0">
          <mxGeometry y="138" width="160" height="52" as="geometry" />
        </mxCell>
        <mxCell id="OBrV_FEZi-91y5rjij_C-11" value="" style="endArrow=block;endFill=0;endSize=12;html=1;rounded=0;exitX=0.4;exitY=0.024;exitDx=0;exitDy=0;exitPerimeter=0;entryX=0.48;entryY=1.032;entryDx=0;entryDy=0;entryPerimeter=0;" edge="1" parent="WIyWlLk6GJQsqaUBKTNV-1" source="JApCHdV5CyoGkeaYSmi2-0" target="7KKqcQ-AcLceqtSB1Sf0-27">
          <mxGeometry width="160" relative="1" as="geometry">
            <mxPoint x="-10" y="370" as="sourcePoint" />
            <mxPoint x="450" y="360" as="targetPoint" />
            <Array as="points">
              <mxPoint x="-40" y="360" />
              <mxPoint x="422" y="360" />
            </Array>
          </mxGeometry>
        </mxCell>
        <mxCell id="OBrV_FEZi-91y5rjij_C-12" value="" style="endArrow=none;endFill=0;endSize=12;html=1;rounded=0;entryX=0.5;entryY=0;entryDx=0;entryDy=0;" edge="1" parent="WIyWlLk6GJQsqaUBKTNV-1" target="JApCHdV5CyoGkeaYSmi2-5">
          <mxGeometry width="160" relative="1" as="geometry">
            <mxPoint x="420" y="360" as="sourcePoint" />
            <mxPoint x="750" y="350" as="targetPoint" />
            <Array as="points">
              <mxPoint x="1000" y="360" />
            </Array>
          </mxGeometry>
        </mxCell>
        <mxCell id="OBrV_FEZi-91y5rjij_C-13" value="" style="endArrow=none;endFill=0;endSize=12;html=1;rounded=0;" edge="1" parent="WIyWlLk6GJQsqaUBKTNV-1" source="JApCHdV5CyoGkeaYSmi2-9">
          <mxGeometry width="160" relative="1" as="geometry">
            <mxPoint x="40" y="210" as="sourcePoint" />
            <mxPoint x="170" y="360" as="targetPoint" />
          </mxGeometry>
        </mxCell>
        <mxCell id="OBrV_FEZi-91y5rjij_C-14" value="" style="endArrow=none;endFill=0;endSize=12;html=1;rounded=0;" edge="1" parent="WIyWlLk6GJQsqaUBKTNV-1">
          <mxGeometry width="160" relative="1" as="geometry">
            <mxPoint x="359.5" y="417" as="sourcePoint" />
            <mxPoint x="359.5" y="360" as="targetPoint" />
          </mxGeometry>
        </mxCell>
        <mxCell id="OBrV_FEZi-91y5rjij_C-15" value="" style="endArrow=none;endFill=0;endSize=12;html=1;rounded=0;" edge="1" parent="WIyWlLk6GJQsqaUBKTNV-1">
          <mxGeometry width="160" relative="1" as="geometry">
            <mxPoint x="580" y="417" as="sourcePoint" />
            <mxPoint x="580" y="360" as="targetPoint" />
          </mxGeometry>
        </mxCell>
        <mxCell id="OBrV_FEZi-91y5rjij_C-16" value="" style="endArrow=none;endFill=0;endSize=12;html=1;rounded=0;" edge="1" parent="WIyWlLk6GJQsqaUBKTNV-1">
          <mxGeometry width="160" relative="1" as="geometry">
            <mxPoint x="789.5" y="417" as="sourcePoint" />
            <mxPoint x="789.5" y="360" as="targetPoint" />
          </mxGeometry>
        </mxCell>
        <mxCell id="OBrV_FEZi-91y5rjij_C-18" value="" style="endArrow=none;endFill=0;endSize=12;html=1;rounded=0;" edge="1" parent="WIyWlLk6GJQsqaUBKTNV-1">
          <mxGeometry width="160" relative="1" as="geometry">
            <mxPoint x="999.5" y="608" as="sourcePoint" />
            <mxPoint x="999.5" y="551" as="targetPoint" />
          </mxGeometry>
        </mxCell>
        <mxCell id="OBrV_FEZi-91y5rjij_C-21" value="1" style="endArrow=open;html=1;endSize=12;startArrow=diamondThin;startSize=14;startFill=0;edgeStyle=orthogonalEdgeStyle;align=left;verticalAlign=bottom;rounded=0;" edge="1" parent="WIyWlLk6GJQsqaUBKTNV-1">
          <mxGeometry x="-1" y="3" relative="1" as="geometry">
            <mxPoint x="-25.5" y="541" as="sourcePoint" />
            <mxPoint x="-25" y="610" as="targetPoint" />
          </mxGeometry>
        </mxCell>
      </root>
    </mxGraphModel>
  </diagram>
</mxfile>
